<svg xmlns="http://www.w3.org/2000/svg" viewBox="0 0 800 900" width="800" height="900" role="img">
<defs>
<linearGradient id="g62" x1="0" y1="0" x2="1" y2="1">
<stop offset="0" stop-color="#0F2A5C"/><stop offset="1" stop-color="#2A5AA8"/>
</linearGradient>
<filter id="b62" x="-30%" y="-30%" width="160%" height="160%">
<feGaussianBlur stdDeviation="48"/></filter>
</defs>
<rect width="800" height="900" fill="url(#g62)"/>
<g filter="url(#b62)"><circle cx="811" cy="97" r="408" fill="#3DD6C6" opacity="0.09"/><circle cx="366" cy="880" r="241" fill="#FFFFFF" opacity="0.13"/><circle cx="75" cy="948" r="412" fill="#3DD6C6" opacity="0.08"/><circle cx="38" cy="420" r="285" fill="#FFFFFF" opacity="0.17"/><circle cx="249" cy="547" r="188" fill="#3DD6C6" opacity="0.09"/></g>
<path d="M -144 945 A 720 720 0 0 1 576 225" fill="none" stroke="#3DD6C6" stroke-width="28" stroke-linecap="round" opacity="0.5"/>
<g><circle cx="57" cy="843" r="1.6" fill="#FFFFFF" opacity="0.16"/><circle cx="57" cy="786" r="1.6" fill="#FFFFFF" opacity="0.16"/><circle cx="57" cy="729" r="1.6" fill="#FFFFFF" opacity="0.16"/><circle cx="57" cy="672" r="1.6" fill="#FFFFFF" opacity="0.16"/><circle cx="57" cy="615" r="1.6" fill="#FFFFFF" opacity="0.16"/><circle cx="57" cy="558" r="1.6" fill="#FFFFFF" opacity="0.16"/><circle cx="114" cy="843" r="1.6" fill="#FFFFFF" opacity="0.16"/><circle cx="114" cy="786" r="1.6" fill="#FFFFFF" opacity="0.16"/><circle cx="114" cy="729" r="1.6" fill="#FFFFFF" opacity="0.16"/><circle cx="114" cy="672" r="1.6" fill="#FFFFFF" opacity="0.16"/><circle cx="114" cy="615" r="1.6" fill="#FFFFFF" opacity="0.16"/><circle cx="114" cy="558" r="1.6" fill="#FFFFFF" opacity="0.16"/><circle cx="171" cy="843" r="1.6" fill="#FFFFFF" opacity="0.16"/><circle cx="171" cy="786" r="1.6" fill="#FFFFFF" opacity="0.16"/><circle cx="171" cy="729" r="1.6" fill="#FFFFFF" opacity="0.16"/><circle cx="171" cy="672" r="1.6" fill="#FFFFFF" opacity="0.16"/><circle cx="171" cy="615" r="1.6" fill="#FFFFFF" opacity="0.16"/><circle cx="171" cy="558" r="1.6" fill="#FFFFFF" opacity="0.16"/><circle cx="228" cy="843" r="1.6" fill="#FFFFFF" opacity="0.16"/><circle cx="228" cy="786" r="1.6" fill="#FFFFFF" opacity="0.16"/><circle cx="228" cy="729" r="1.6" fill="#FFFFFF" opacity="0.16"/><circle cx="228" cy="672" r="1.6" fill="#FFFFFF" opacity="0.16"/><circle cx="228" cy="615" r="1.6" fill="#FFFFFF" opacity="0.16"/><circle cx="228" cy="558" r="1.6" fill="#FFFFFF" opacity="0.16"/><circle cx="285" cy="843" r="1.6" fill="#FFFFFF" opacity="0.16"/><circle cx="285" cy="786" r="1.6" fill="#FFFFFF" opacity="0.16"/><circle cx="285" cy="729" r="1.6" fill="#FFFFFF" opacity="0.16"/><circle cx="285" cy="672" r="1.6" fill="#FFFFFF" opacity="0.16"/><circle cx="285" cy="615" r="1.6" fill="#FFFFFF" opacity="0.16"/><circle cx="285" cy="558" r="1.6" fill="#FFFFFF" opacity="0.16"/><circle cx="342" cy="843" r="1.6" fill="#FFFFFF" opacity="0.16"/><circle cx="342" cy="786" r="1.6" fill="#FFFFFF" opacity="0.16"/><circle cx="342" cy="729" r="1.6" fill="#FFFFFF" opacity="0.16"/><circle cx="342" cy="672" r="1.6" fill="#FFFFFF" opacity="0.16"/><circle cx="342" cy="615" r="1.6" fill="#FFFFFF" opacity="0.16"/><circle cx="342" cy="558" r="1.6" fill="#FFFFFF" opacity="0.16"/></g>
</svg>