<svg xmlns="http://www.w3.org/2000/svg" viewBox="0 0 1600 610" width="1600" height="610" role="img">
<defs>
<linearGradient id="g71" x1="0" y1="0" x2="1" y2="1">
<stop offset="0" stop-color="#DCE5F4"/><stop offset="1" stop-color="#B9CBE8"/>
</linearGradient>
<filter id="b71" x="-30%" y="-30%" width="160%" height="160%">
<feGaussianBlur stdDeviation="37"/></filter>
</defs>
<rect width="1600" height="610" fill="url(#g71)"/>
<g filter="url(#b71)"><circle cx="462" cy="393" r="112" fill="#1B3F80" opacity="0.20"/><circle cx="1419" cy="670" r="164" fill="#FFFFFF" opacity="0.09"/><circle cx="-55" cy="81" r="115" fill="#1B3F80" opacity="0.16"/><circle cx="542" cy="536" r="268" fill="#FFFFFF" opacity="0.11"/><circle cx="160" cy="193" r="116" fill="#1B3F80" opacity="0.15"/></g>
<path d="M 603 640 A 549 549 0 0 1 1152 92" fill="none" stroke="#1B3F80" stroke-width="21" stroke-linecap="round" opacity="0.5"/>
<g><circle cx="43" cy="567" r="1.6" fill="#FFFFFF" opacity="0.16"/><circle cx="43" cy="524" r="1.6" fill="#FFFFFF" opacity="0.16"/><circle cx="43" cy="481" r="1.6" fill="#FFFFFF" opacity="0.16"/><circle cx="43" cy="438" r="1.6" fill="#FFFFFF" opacity="0.16"/><circle cx="43" cy="395" r="1.6" fill="#FFFFFF" opacity="0.16"/><circle cx="86" cy="567" r="1.6" fill="#FFFFFF" opacity="0.16"/><circle cx="86" cy="524" r="1.6" fill="#FFFFFF" opacity="0.16"/><circle cx="86" cy="481" r="1.6" fill="#FFFFFF" opacity="0.16"/><circle cx="86" cy="438" r="1.6" fill="#FFFFFF" opacity="0.16"/><circle cx="86" cy="395" r="1.6" fill="#FFFFFF" opacity="0.16"/><circle cx="129" cy="567" r="1.6" fill="#FFFFFF" opacity="0.16"/><circle cx="129" cy="524" r="1.6" fill="#FFFFFF" opacity="0.16"/><circle cx="129" cy="481" r="1.6" fill="#FFFFFF" opacity="0.16"/><circle cx="129" cy="438" r="1.6" fill="#FFFFFF" opacity="0.16"/><circle cx="129" cy="395" r="1.6" fill="#FFFFFF" opacity="0.16"/><circle cx="172" cy="567" r="1.6" fill="#FFFFFF" opacity="0.16"/><circle cx="172" cy="524" r="1.6" fill="#FFFFFF" opacity="0.16"/><circle cx="172" cy="481" r="1.6" fill="#FFFFFF" opacity="0.16"/><circle cx="172" cy="438" r="1.6" fill="#FFFFFF" opacity="0.16"/><circle cx="172" cy="395" r="1.6" fill="#FFFFFF" opacity="0.16"/><circle cx="215" cy="567" r="1.6" fill="#FFFFFF" opacity="0.16"/><circle cx="215" cy="524" r="1.6" fill="#FFFFFF" opacity="0.16"/><circle cx="215" cy="481" r="1.6" fill="#FFFFFF" opacity="0.16"/><circle cx="215" cy="438" r="1.6" fill="#FFFFFF" opacity="0.16"/><circle cx="215" cy="395" r="1.6" fill="#FFFFFF" opacity="0.16"/><circle cx="258" cy="567" r="1.6" fill="#FFFFFF" opacity="0.16"/><circle cx="258" cy="524" r="1.6" fill="#FFFFFF" opacity="0.16"/><circle cx="258" cy="481" r="1.6" fill="#FFFFFF" opacity="0.16"/><circle cx="258" cy="438" r="1.6" fill="#FFFFFF" opacity="0.16"/><circle cx="258" cy="395" r="1.6" fill="#FFFFFF" opacity="0.16"/><circle cx="301" cy="567" r="1.6" fill="#FFFFFF" opacity="0.16"/><circle cx="301" cy="524" r="1.6" fill="#FFFFFF" opacity="0.16"/><circle cx="301" cy="481" r="1.6" fill="#FFFFFF" opacity="0.16"/><circle cx="301" cy="438" r="1.6" fill="#FFFFFF" opacity="0.16"/><circle cx="301" cy="395" r="1.6" fill="#FFFFFF" opacity="0.16"/><circle cx="344" cy="567" r="1.6" fill="#FFFFFF" opacity="0.16"/><circle cx="344" cy="524" r="1.6" fill="#FFFFFF" opacity="0.16"/><circle cx="344" cy="481" r="1.6" fill="#FFFFFF" opacity="0.16"/><circle cx="344" cy="438" r="1.6" fill="#FFFFFF" opacity="0.16"/><circle cx="344" cy="395" r="1.6" fill="#FFFFFF" opacity="0.16"/><circle cx="387" cy="567" r="1.6" fill="#FFFFFF" opacity="0.16"/><circle cx="387" cy="524" r="1.6" fill="#FFFFFF" opacity="0.16"/><circle cx="387" cy="481" r="1.6" fill="#FFFFFF" opacity="0.16"/><circle cx="387" cy="438" r="1.6" fill="#FFFFFF" opacity="0.16"/><circle cx="387" cy="395" r="1.6" fill="#FFFFFF" opacity="0.16"/><circle cx="430" cy="567" r="1.6" fill="#FFFFFF" opacity="0.16"/><circle cx="430" cy="524" r="1.6" fill="#FFFFFF" opacity="0.16"/><circle cx="430" cy="481" r="1.6" fill="#FFFFFF" opacity="0.16"/><circle cx="430" cy="438" r="1.6" fill="#FFFFFF" opacity="0.16"/><circle cx="430" cy="395" r="1.6" fill="#FFFFFF" opacity="0.16"/><circle cx="473" cy="567" r="1.6" fill="#FFFFFF" opacity="0.16"/><circle cx="473" cy="524" r="1.6" fill="#FFFFFF" opacity="0.16"/><circle cx="473" cy="481" r="1.6" fill="#FFFFFF" opacity="0.16"/><circle cx="473" cy="438" r="1.6" fill="#FFFFFF" opacity="0.16"/><circle cx="473" cy="395" r="1.6" fill="#FFFFFF" opacity="0.16"/><circle cx="516" cy="567" r="1.6" fill="#FFFFFF" opacity="0.16"/><circle cx="516" cy="524" r="1.6" fill="#FFFFFF" opacity="0.16"/><circle cx="516" cy="481" r="1.6" fill="#FFFFFF" opacity="0.16"/><circle cx="516" cy="438" r="1.6" fill="#FFFFFF" opacity="0.16"/><circle cx="516" cy="395" r="1.6" fill="#FFFFFF" opacity="0.16"/><circle cx="559" cy="567" r="1.6" fill="#FFFFFF" opacity="0.16"/><circle cx="559" cy="524" r="1.6" fill="#FFFFFF" opacity="0.16"/><circle cx="559" cy="481" r="1.6" fill="#FFFFFF" opacity="0.16"/><circle cx="559" cy="438" r="1.6" fill="#FFFFFF" opacity="0.16"/><circle cx="559" cy="395" r="1.6" fill="#FFFFFF" opacity="0.16"/><circle cx="602" cy="567" r="1.6" fill="#FFFFFF" opacity="0.16"/><circle cx="602" cy="524" r="1.6" fill="#FFFFFF" opacity="0.16"/><circle cx="602" cy="481" r="1.6" fill="#FFFFFF" opacity="0.16"/><circle cx="602" cy="438" r="1.6" fill="#FFFFFF" opacity="0.16"/><circle cx="602" cy="395" r="1.6" fill="#FFFFFF" opacity="0.16"/><circle cx="645" cy="567" r="1.6" fill="#FFFFFF" opacity="0.16"/><circle cx="645" cy="524" r="1.6" fill="#FFFFFF" opacity="0.16"/><circle cx="645" cy="481" r="1.6" fill="#FFFFFF" opacity="0.16"/><circle cx="645" cy="438" r="1.6" fill="#FFFFFF" opacity="0.16"/><circle cx="645" cy="395" r="1.6" fill="#FFFFFF" opacity="0.16"/><circle cx="688" cy="567" r="1.6" fill="#FFFFFF" opacity="0.16"/><circle cx="688" cy="524" r="1.6" fill="#FFFFFF" opacity="0.16"/><circle cx="688" cy="481" r="1.6" fill="#FFFFFF" opacity="0.16"/><circle cx="688" cy="438" r="1.6" fill="#FFFFFF" opacity="0.16"/><circle cx="688" cy="395" r="1.6" fill="#FFFFFF" opacity="0.16"/></g>
</svg>