<svg xmlns="http://www.w3.org/2000/svg" viewBox="0 0 680 344" width="680" height="344"><path d="M172 4h0M180 4h0M188 4h0M196 4h0M204 4h0M212 4h0M220 4h0M228 4h0M236 4h0M244 4h0M252 4h0M260 4h0M268 4h0M276 4h0M324 4h0M332 4h0M444 4h0M124 12h0M132 12h0M140 12h0M156 12h0M164 12h0M172 12h0M180 12h0M188 12h0M204 12h0M212 12h0M220 12h0M228 12h0M236 12h0M244 12h0M252 12h0M260 12h0M268 12h0M276 12h0M396 12h0M444 12h0M452 12h0M460 12h0M468 12h0M476 12h0M524 12h0M108 20h0M116 20h0M124 20h0M132 20h0M148 20h0M156 20h0M164 20h0M172 20h0M180 20h0M220 20h0M228 20h0M236 20h0M244 20h0M252 20h0M260 20h0M268 20h0M388 20h0M396 20h0M420 20h0M428 20h0M436 20h0M444 20h0M452 20h0M460 20h0M468 20h0M476 20h0M484 20h0M492 20h0M500 20h0M508 20h0M516 20h0M524 20h0M532 20h0M540 20h0M548 20h0M28 28h0M36 28h0M44 28h0M52 28h0M60 28h0M68 28h0M76 28h0M84 28h0M92 28h0M100 28h0M108 28h0M116 28h0M124 28h0M132 28h0M140 28h0M148 28h0M156 28h0M164 28h0M172 28h0M180 28h0M188 28h0M212 28h0M220 28h0M228 28h0M236 28h0M244 28h0M252 28h0M260 28h0M332 28h0M340 28h0M348 28h0M356 28h0M364 28h0M388 28h0M396 28h0M404 28h0M412 28h0M420 28h0M428 28h0M436 28h0M444 28h0M452 28h0M460 28h0M468 28h0M476 28h0M484 28h0M492 28h0M500 28h0M508 28h0M516 28h0M524 28h0M532 28h0M540 28h0M548 28h0M556 28h0M564 28h0M572 28h0M580 28h0M588 28h0M596 28h0M604 28h0M612 28h0M12 36h0M20 36h0M28 36h0M36 36h0M44 36h0M52 36h0M60 36h0M68 36h0M76 36h0M84 36h0M92 36h0M100 36h0M108 36h0M116 36h0M124 36h0M132 36h0M140 36h0M148 36h0M156 36h0M172 36h0M180 36h0M188 36h0M212 36h0M220 36h0M228 36h0M236 36h0M268 36h0M276 36h0M324 36h0M332 36h0M340 36h0M348 36h0M356 36h0M364 36h0M372 36h0M380 36h0M388 36h0M396 36h0M404 36h0M412 36h0M420 36h0M428 36h0M436 36h0M444 36h0M452 36h0M460 36h0M468 36h0M476 36h0M484 36h0M492 36h0M500 36h0M508 36h0M516 36h0M524 36h0M532 36h0M540 36h0M548 36h0M556 36h0M564 36h0M572 36h0M580 36h0M588 36h0M596 36h0M604 36h0M612 36h0M620 36h0M628 36h0M4 44h0M12 44h0M20 44h0M28 44h0M36 44h0M44 44h0M52 44h0M60 44h0M68 44h0M76 44h0M84 44h0M92 44h0M100 44h0M108 44h0M116 44h0M124 44h0M132 44h0M156 44h0M164 44h0M172 44h0M180 44h0M212 44h0M220 44h0M316 44h0M324 44h0M332 44h0M340 44h0M348 44h0M356 44h0M364 44h0M372 44h0M380 44h0M388 44h0M396 44h0M404 44h0M412 44h0M420 44h0M428 44h0M436 44h0M444 44h0M452 44h0M460 44h0M468 44h0M476 44h0M484 44h0M492 44h0M500 44h0M508 44h0M516 44h0M524 44h0M532 44h0M540 44h0M548 44h0M556 44h0M564 44h0M572 44h0M580 44h0M588 44h0M596 44h0M604 44h0M612 44h0M620 44h0M4 52h0M12 52h0M44 52h0M52 52h0M60 52h0M68 52h0M76 52h0M84 52h0M92 52h0M100 52h0M108 52h0M116 52h0M124 52h0M156 52h0M164 52h0M172 52h0M180 52h0M292 52h0M316 52h0M324 52h0M332 52h0M348 52h0M356 52h0M364 52h0M372 52h0M380 52h0M388 52h0M396 52h0M404 52h0M412 52h0M420 52h0M428 52h0M436 52h0M444 52h0M452 52h0M460 52h0M468 52h0M476 52h0M484 52h0M492 52h0M500 52h0M508 52h0M516 52h0M524 52h0M532 52h0M540 52h0M548 52h0M556 52h0M564 52h0M604 52h0M52 60h0M60 60h0M68 60h0M76 60h0M84 60h0M92 60h0M100 60h0M108 60h0M116 60h0M124 60h0M132 60h0M140 60h0M148 60h0M156 60h0M164 60h0M172 60h0M180 60h0M188 60h0M284 60h0M292 60h0M300 60h0M316 60h0M324 60h0M332 60h0M340 60h0M348 60h0M356 60h0M364 60h0M372 60h0M380 60h0M388 60h0M396 60h0M404 60h0M412 60h0M420 60h0M428 60h0M436 60h0M444 60h0M452 60h0M460 60h0M468 60h0M476 60h0M484 60h0M492 60h0M500 60h0M508 60h0M516 60h0M524 60h0M532 60h0M540 60h0M548 60h0M556 60h0M564 60h0M604 60h0M612 60h0M52 68h0M60 68h0M68 68h0M76 68h0M84 68h0M92 68h0M100 68h0M108 68h0M116 68h0M124 68h0M132 68h0M140 68h0M148 68h0M156 68h0M164 68h0M172 68h0M180 68h0M188 68h0M284 68h0M292 68h0M300 68h0M308 68h0M316 68h0M324 68h0M332 68h0M340 68h0M348 68h0M356 68h0M364 68h0M372 68h0M380 68h0M388 68h0M396 68h0M404 68h0M412 68h0M420 68h0M428 68h0M436 68h0M444 68h0M452 68h0M460 68h0M468 68h0M476 68h0M484 68h0M492 68h0M500 68h0M508 68h0M516 68h0M524 68h0M532 68h0M540 68h0M548 68h0M556 68h0M564 68h0M572 68h0M580 68h0M612 68h0M52 76h0M60 76h0M68 76h0M76 76h0M84 76h0M92 76h0M100 76h0M108 76h0M116 76h0M124 76h0M132 76h0M140 76h0M148 76h0M156 76h0M164 76h0M188 76h0M300 76h0M308 76h0M316 76h0M324 76h0M332 76h0M340 76h0M348 76h0M356 76h0M364 76h0M372 76h0M380 76h0M388 76h0M396 76h0M404 76h0M412 76h0M420 76h0M428 76h0M436 76h0M444 76h0M452 76h0M460 76h0M468 76h0M476 76h0M484 76h0M492 76h0M500 76h0M508 76h0M516 76h0M524 76h0M532 76h0M540 76h0M548 76h0M556 76h0M564 76h0M572 76h0M580 76h0M588 76h0M44 84h0M52 84h0M60 84h0M68 84h0M76 84h0M84 84h0M92 84h0M100 84h0M108 84h0M116 84h0M124 84h0M132 84h0M140 84h0M148 84h0M156 84h0M164 84h0M172 84h0M300 84h0M308 84h0M316 84h0M324 84h0M332 84h0M340 84h0M348 84h0M356 84h0M372 84h0M380 84h0M388 84h0M396 84h0M404 84h0M412 84h0M420 84h0M428 84h0M436 84h0M444 84h0M452 84h0M460 84h0M468 84h0M476 84h0M484 84h0M492 84h0M500 84h0M508 84h0M516 84h0M524 84h0M532 84h0M540 84h0M548 84h0M556 84h0M564 84h0M572 84h0M580 84h0M36 92h0M44 92h0M52 92h0M60 92h0M68 92h0M76 92h0M84 92h0M92 92h0M100 92h0M108 92h0M116 92h0M124 92h0M132 92h0M140 92h0M148 92h0M284 92h0M292 92h0M300 92h0M324 92h0M332 92h0M340 92h0M348 92h0M356 92h0M372 92h0M388 92h0M396 92h0M412 92h0M420 92h0M428 92h0M436 92h0M444 92h0M452 92h0M460 92h0M468 92h0M476 92h0M484 92h0M492 92h0M500 92h0M508 92h0M516 92h0M524 92h0M532 92h0M540 92h0M548 92h0M556 92h0M564 92h0M572 92h0M596 92h0M36 100h0M44 100h0M52 100h0M60 100h0M68 100h0M76 100h0M84 100h0M92 100h0M100 100h0M108 100h0M116 100h0M124 100h0M132 100h0M140 100h0M284 100h0M292 100h0M300 100h0M332 100h0M340 100h0M348 100h0M356 100h0M364 100h0M372 100h0M380 100h0M388 100h0M396 100h0M404 100h0M412 100h0M420 100h0M428 100h0M436 100h0M444 100h0M452 100h0M460 100h0M468 100h0M476 100h0M484 100h0M492 100h0M500 100h0M508 100h0M516 100h0M524 100h0M532 100h0M540 100h0M548 100h0M556 100h0M564 100h0M572 100h0M596 100h0M36 108h0M44 108h0M52 108h0M60 108h0M68 108h0M76 108h0M84 108h0M92 108h0M100 108h0M108 108h0M116 108h0M124 108h0M132 108h0M284 108h0M292 108h0M300 108h0M308 108h0M316 108h0M372 108h0M380 108h0M388 108h0M396 108h0M404 108h0M412 108h0M420 108h0M428 108h0M436 108h0M444 108h0M452 108h0M460 108h0M468 108h0M476 108h0M484 108h0M492 108h0M500 108h0M508 108h0M516 108h0M524 108h0M532 108h0M540 108h0M548 108h0M556 108h0M572 108h0M588 108h0M596 108h0M604 108h0M44 116h0M52 116h0M60 116h0M68 116h0M76 116h0M84 116h0M92 116h0M100 116h0M108 116h0M116 116h0M124 116h0M284 116h0M292 116h0M300 116h0M308 116h0M316 116h0M324 116h0M348 116h0M380 116h0M388 116h0M396 116h0M404 116h0M412 116h0M420 116h0M428 116h0M436 116h0M444 116h0M452 116h0M460 116h0M468 116h0M476 116h0M484 116h0M492 116h0M500 116h0M508 116h0M516 116h0M524 116h0M532 116h0M540 116h0M548 116h0M556 116h0M564 116h0M588 116h0M44 124h0M52 124h0M60 124h0M68 124h0M76 124h0M84 124h0M92 124h0M100 124h0M108 124h0M116 124h0M276 124h0M284 124h0M292 124h0M300 124h0M308 124h0M316 124h0M324 124h0M332 124h0M340 124h0M348 124h0M356 124h0M364 124h0M372 124h0M380 124h0M388 124h0M396 124h0M404 124h0M412 124h0M420 124h0M428 124h0M436 124h0M444 124h0M452 124h0M460 124h0M468 124h0M476 124h0M484 124h0M492 124h0M500 124h0M508 124h0M516 124h0M524 124h0M532 124h0M540 124h0M548 124h0M556 124h0M564 124h0M44 132h0M52 132h0M60 132h0M68 132h0M76 132h0M116 132h0M268 132h0M276 132h0M284 132h0M292 132h0M300 132h0M308 132h0M316 132h0M324 132h0M332 132h0M340 132h0M348 132h0M356 132h0M364 132h0M372 132h0M380 132h0M388 132h0M396 132h0M404 132h0M412 132h0M420 132h0M428 132h0M436 132h0M444 132h0M452 132h0M460 132h0M468 132h0M476 132h0M484 132h0M492 132h0M500 132h0M508 132h0M516 132h0M524 132h0M532 132h0M540 132h0M548 132h0M556 132h0M564 132h0M60 140h0M68 140h0M76 140h0M116 140h0M260 140h0M268 140h0M276 140h0M284 140h0M292 140h0M300 140h0M308 140h0M316 140h0M324 140h0M332 140h0M340 140h0M348 140h0M356 140h0M364 140h0M372 140h0M380 140h0M388 140h0M396 140h0M404 140h0M412 140h0M420 140h0M428 140h0M452 140h0M460 140h0M468 140h0M476 140h0M484 140h0M492 140h0M500 140h0M508 140h0M516 140h0M524 140h0M532 140h0M540 140h0M548 140h0M556 140h0M572 140h0M60 148h0M68 148h0M76 148h0M92 148h0M100 148h0M124 148h0M260 148h0M268 148h0M276 148h0M284 148h0M292 148h0M300 148h0M308 148h0M316 148h0M324 148h0M332 148h0M340 148h0M348 148h0M356 148h0M364 148h0M372 148h0M380 148h0M388 148h0M396 148h0M404 148h0M412 148h0M420 148h0M428 148h0M460 148h0M468 148h0M476 148h0M484 148h0M492 148h0M508 148h0M516 148h0M524 148h0M532 148h0M540 148h0M548 148h0M68 156h0M76 156h0M84 156h0M92 156h0M260 156h0M268 156h0M276 156h0M284 156h0M292 156h0M300 156h0M308 156h0M316 156h0M324 156h0M332 156h0M340 156h0M348 156h0M356 156h0M364 156h0M372 156h0M380 156h0M396 156h0M404 156h0M412 156h0M420 156h0M468 156h0M476 156h0M484 156h0M516 156h0M524 156h0M532 156h0M540 156h0M572 156h0M92 164h0M100 164h0M108 164h0M260 164h0M268 164h0M276 164h0M284 164h0M292 164h0M300 164h0M308 164h0M316 164h0M324 164h0M332 164h0M340 164h0M348 164h0M356 164h0M364 164h0M372 164h0M380 164h0M388 164h0M396 164h0M404 164h0M412 164h0M468 164h0M476 164h0M524 164h0M532 164h0M540 164h0M548 164h0M572 164h0M580 164h0M100 172h0M124 172h0M132 172h0M140 172h0M148 172h0M268 172h0M276 172h0M284 172h0M292 172h0M300 172h0M308 172h0M316 172h0M324 172h0M332 172h0M340 172h0M348 172h0M356 172h0M364 172h0M372 172h0M380 172h0M388 172h0M396 172h0M404 172h0M412 172h0M476 172h0M524 172h0M540 172h0M548 172h0M580 172h0M108 180h0M116 180h0M124 180h0M132 180h0M140 180h0M148 180h0M156 180h0M268 180h0M276 180h0M284 180h0M292 180h0M300 180h0M308 180h0M316 180h0M324 180h0M332 180h0M340 180h0M348 180h0M356 180h0M364 180h0M372 180h0M380 180h0M388 180h0M396 180h0M404 180h0M412 180h0M484 180h0M524 180h0M580 180h0M588 180h0M124 188h0M132 188h0M140 188h0M148 188h0M156 188h0M164 188h0M172 188h0M276 188h0M284 188h0M292 188h0M316 188h0M324 188h0M332 188h0M340 188h0M348 188h0M356 188h0M364 188h0M372 188h0M380 188h0M388 188h0M396 188h0M404 188h0M524 188h0M532 188h0M564 188h0M116 196h0M124 196h0M132 196h0M140 196h0M148 196h0M156 196h0M164 196h0M172 196h0M180 196h0M324 196h0M332 196h0M340 196h0M348 196h0M356 196h0M364 196h0M372 196h0M380 196h0M388 196h0M396 196h0M524 196h0M532 196h0M556 196h0M564 196h0M572 196h0M580 196h0M116 204h0M124 204h0M132 204h0M140 204h0M148 204h0M156 204h0M164 204h0M172 204h0M180 204h0M188 204h0M196 204h0M324 204h0M332 204h0M340 204h0M348 204h0M356 204h0M364 204h0M372 204h0M380 204h0M388 204h0M532 204h0M540 204h0M556 204h0M564 204h0M572 204h0M580 204h0M604 204h0M116 212h0M124 212h0M132 212h0M140 212h0M148 212h0M156 212h0M164 212h0M172 212h0M180 212h0M188 212h0M196 212h0M204 212h0M212 212h0M324 212h0M332 212h0M340 212h0M348 212h0M356 212h0M364 212h0M372 212h0M380 212h0M388 212h0M540 212h0M572 212h0M612 212h0M620 212h0M628 212h0M644 212h0M116 220h0M124 220h0M132 220h0M140 220h0M148 220h0M156 220h0M164 220h0M172 220h0M180 220h0M188 220h0M196 220h0M204 220h0M212 220h0M332 220h0M340 220h0M348 220h0M356 220h0M364 220h0M372 220h0M380 220h0M388 220h0M548 220h0M556 220h0M620 220h0M628 220h0M636 220h0M124 228h0M132 228h0M140 228h0M148 228h0M156 228h0M164 228h0M172 228h0M180 228h0M188 228h0M196 228h0M204 228h0M212 228h0M332 228h0M340 228h0M348 228h0M356 228h0M364 228h0M372 228h0M380 228h0M388 228h0M124 236h0M132 236h0M140 236h0M148 236h0M156 236h0M164 236h0M172 236h0M180 236h0M188 236h0M196 236h0M204 236h0M332 236h0M340 236h0M348 236h0M356 236h0M364 236h0M372 236h0M380 236h0M388 236h0M412 236h0M588 236h0M596 236h0M604 236h0M620 236h0M628 236h0M132 244h0M140 244h0M148 244h0M156 244h0M164 244h0M172 244h0M180 244h0M188 244h0M196 244h0M204 244h0M324 244h0M332 244h0M340 244h0M348 244h0M356 244h0M364 244h0M372 244h0M380 244h0M388 244h0M404 244h0M412 244h0M580 244h0M588 244h0M596 244h0M604 244h0M612 244h0M620 244h0M628 244h0M140 252h0M148 252h0M156 252h0M164 252h0M172 252h0M180 252h0M188 252h0M196 252h0M204 252h0M332 252h0M340 252h0M348 252h0M356 252h0M364 252h0M372 252h0M396 252h0M404 252h0M564 252h0M572 252h0M580 252h0M588 252h0M596 252h0M604 252h0M612 252h0M620 252h0M628 252h0M140 260h0M148 260h0M156 260h0M164 260h0M172 260h0M180 260h0M188 260h0M196 260h0M332 260h0M340 260h0M348 260h0M356 260h0M364 260h0M372 260h0M396 260h0M404 260h0M556 260h0M564 260h0M572 260h0M580 260h0M588 260h0M596 260h0M604 260h0M612 260h0M620 260h0M628 260h0M636 260h0M140 268h0M148 268h0M156 268h0M164 268h0M172 268h0M180 268h0M188 268h0M332 268h0M340 268h0M348 268h0M356 268h0M364 268h0M372 268h0M556 268h0M564 268h0M572 268h0M580 268h0M588 268h0M596 268h0M604 268h0M612 268h0M620 268h0M628 268h0M636 268h0M140 276h0M148 276h0M156 276h0M164 276h0M172 276h0M180 276h0M188 276h0M340 276h0M348 276h0M356 276h0M364 276h0M556 276h0M564 276h0M572 276h0M580 276h0M588 276h0M596 276h0M604 276h0M612 276h0M620 276h0M628 276h0M636 276h0M140 284h0M148 284h0M156 284h0M164 284h0M172 284h0M180 284h0M340 284h0M348 284h0M356 284h0M556 284h0M564 284h0M572 284h0M580 284h0M596 284h0M604 284h0M612 284h0M620 284h0M628 284h0M140 292h0M148 292h0M156 292h0M164 292h0M172 292h0M604 292h0M612 292h0M620 292h0M148 300h0M156 300h0M164 300h0M172 300h0M604 300h0M612 300h0M676 300h0M148 308h0M156 308h0M164 308h0M604 308h0M612 308h0M660 308h0M668 308h0M148 316h0M156 316h0M164 316h0M644 316h0M652 316h0M148 324h0M156 324h0M164 324h0M156 332h0M164 332h0M164 340h0M172 340h0" fill="none" stroke="#613394" stroke-width="3.6" stroke-linecap="round"/></svg>